<svg width="24" height="24" viewBox="0 0 24 24" fill="none" xmlns="http://www.w3.org/2000/svg">
<path d="M9.53033 5.46967C9.23744 5.17678 8.76256 5.17678 8.46967 5.46967C8.17678 5.76256 8.17678 6.23744 8.46967 6.53033L9.53033 5.46967ZM8.46967 17.4697C8.17678 17.7626 8.17678 18.2374 8.46967 18.5303C8.76256 18.8232 9.23744 18.8232 9.53033 18.5303L8.46967 17.4697ZM14.1515 11.1515L14.6818 10.6211L14.1515 11.1515ZM8.46967 6.53033L13.6211 11.6818L14.6818 10.6211L9.53033 5.46967L8.46967 6.53033ZM13.6211 12.3182L8.46967 17.4697L9.53033 18.5303L14.6818 13.3789L13.6211 12.3182ZM13.6211 11.6818C13.7969 11.8575 13.7969 12.1425 13.6211 12.3182L14.6818 13.3789C15.4433 12.6173 15.4433 11.3827 14.6818 10.6211L13.6211 11.6818Z" fill="#DBD5D2"/>
</svg>

