<svg width="24" height="24" viewBox="0 0 24 24" fill="none" xmlns="http://www.w3.org/2000/svg">
<path d="M14.4697 5.46967C14.7626 5.17678 15.2374 5.17678 15.5303 5.46967C15.8232 5.76256 15.8232 6.23744 15.5303 6.53033L14.4697 5.46967ZM15.5303 17.4697C15.8232 17.7626 15.8232 18.2374 15.5303 18.5303C15.2374 18.8232 14.7626 18.8232 14.4697 18.5303L15.5303 17.4697ZM9.84853 11.1515L9.3182 10.6211L9.84853 11.1515ZM15.5303 6.53033L10.3789 11.6818L9.3182 10.6211L14.4697 5.46967L15.5303 6.53033ZM10.3789 12.3182L15.5303 17.4697L14.4697 18.5303L9.3182 13.3789L10.3789 12.3182ZM10.3789 11.6818C10.2031 11.8575 10.2031 12.1425 10.3789 12.3182L9.3182 13.3789C8.55667 12.6173 8.55668 11.3827 9.3182 10.6211L10.3789 11.6818Z" fill="#DBD5D2"/>
</svg>
