<svg width="13" height="12" viewBox="0 0 13 12" fill="none" xmlns="http://www.w3.org/2000/svg">
<path fill-rule="evenodd" clip-rule="evenodd" d="M0.928467 4.14271C0.928467 2.32802 2.39956 0.856934 4.21424 0.856934H8.78575C10.6004 0.856934 12.0715 2.32802 12.0715 4.14271V8.71422C12.0715 10.5289 10.6004 12 8.78575 12H4.21424C2.39956 12 0.928467 10.5289 0.928467 8.71422V4.14271ZM4.21424 1.71409C2.87295 1.71409 1.78563 2.80142 1.78563 4.14271V8.71422C1.78563 10.0555 2.87295 11.1428 4.21424 11.1428H8.78575C10.127 11.1428 11.2144 10.0555 11.2144 8.71422V4.14271C11.2144 2.80142 10.127 1.71409 8.78575 1.71409H4.21424Z" fill="#FFF8EC"/>
<path fill-rule="evenodd" clip-rule="evenodd" d="M11.643 4.57151H1.35706V3.71436H11.643V4.57151Z" fill="#FFF8EC"/>
<path d="M7.14576 9.57177H6.28288V7.21173C6.28288 7.11649 6.28479 6.98887 6.2886 6.82887C6.29241 6.66505 6.29812 6.52219 6.30574 6.40029C6.28669 6.42314 6.24479 6.46505 6.18003 6.526C6.11907 6.58315 6.06193 6.63458 6.00859 6.68029L5.54001 7.05744L5.12286 6.53743L6.43717 5.4917H7.14576V9.57177Z" fill="#FFF8EC"/>
<path fill-rule="evenodd" clip-rule="evenodd" d="M9.07146 1.87338e-08C8.83476 8.3874e-09 8.64288 0.191881 8.64288 0.428579L8.64288 2.1429C8.64288 2.37959 8.83476 2.57148 9.07146 2.57148C9.30816 2.57148 9.50004 2.37959 9.50004 2.1429L9.50004 0.428579C9.50004 0.191881 9.30816 2.90802e-08 9.07146 1.87338e-08Z" fill="#FFF8EC"/>
<path fill-rule="evenodd" clip-rule="evenodd" d="M3.92852 1.87338e-08C3.69182 8.3874e-09 3.49994 0.191881 3.49994 0.428579L3.49994 2.1429C3.49994 2.37959 3.69182 2.57148 3.92852 2.57148C4.16522 2.57148 4.3571 2.37959 4.3571 2.1429L4.3571 0.428579C4.3571 0.191881 4.16522 2.90802e-08 3.92852 1.87338e-08Z" fill="#FFF8EC"/>
</svg>
 