<svg width="13" height="12" viewBox="0 0 13 12" fill="none" xmlns="http://www.w3.org/2000/svg">
<path fill-rule="evenodd" clip-rule="evenodd" d="M0.928459 4.14271C0.928459 2.32802 2.39955 0.856934 4.21423 0.856934H8.78574C10.6004 0.856934 12.0715 2.32802 12.0715 4.14271V8.71422C12.0715 10.5289 10.6004 12 8.78574 12H4.21423C2.39955 12 0.928459 10.5289 0.928459 8.71422V4.14271ZM4.21423 1.71409C2.87295 1.71409 1.78562 2.80142 1.78562 4.14271V8.71422C1.78562 10.0555 2.87295 11.1428 4.21423 11.1428H8.78574C10.127 11.1428 11.2144 10.0555 11.2144 8.71422V4.14271C11.2144 2.80142 10.127 1.71409 8.78574 1.71409H4.21423Z" fill="#FFF8EC"/>
<path fill-rule="evenodd" clip-rule="evenodd" d="M11.6429 4.57151H1.35703V3.71436H11.6429V4.57151Z" fill="#FFF8EC"/>
<path fill-rule="evenodd" clip-rule="evenodd" d="M2.99999 6.44615C2.99999 6.69271 3.18803 6.89258 3.41999 6.89258H3.97999C4.21195 6.89258 4.39999 6.69271 4.39999 6.44615C4.39999 6.19959 4.21195 5.99972 3.97999 5.99972H3.41999C3.18803 5.99972 2.99999 6.19959 2.99999 6.44615Z" fill="#FFF8EC"/>
<path fill-rule="evenodd" clip-rule="evenodd" d="M5.8 6.44615C5.8 6.69271 5.98804 6.89258 6.22 6.89258H6.78C7.01196 6.89258 7.2 6.69271 7.2 6.44615C7.2 6.19959 7.01196 5.99972 6.78 5.99972H6.22C5.98804 5.99972 5.8 6.19959 5.8 6.44615Z" fill="#FFF8EC"/>
<path fill-rule="evenodd" clip-rule="evenodd" d="M8.60001 6.44615C8.60001 6.69271 8.78805 6.89258 9.02001 6.89258H9.58001C9.81197 6.89258 10 6.69271 10 6.44615C10 6.19959 9.81197 5.99972 9.58001 5.99972H9.02001C8.78805 5.99972 8.60001 6.19959 8.60001 6.44615Z" fill="#FFF8EC"/>
<path fill-rule="evenodd" clip-rule="evenodd" d="M2.99999 8.82701C2.99999 9.07356 3.18803 9.27344 3.41999 9.27344H3.97999C4.21195 9.27344 4.39999 9.07356 4.39999 8.82701C4.39999 8.58045 4.21195 8.38058 3.97999 8.38058H3.41999C3.18803 8.38058 2.99999 8.58045 2.99999 8.82701Z" fill="#FFF8EC"/>
<path fill-rule="evenodd" clip-rule="evenodd" d="M5.8 8.82701C5.8 9.07356 5.98804 9.27344 6.22 9.27344H6.78C7.01196 9.27344 7.2 9.07356 7.2 8.82701C7.2 8.58045 7.01196 8.38058 6.78 8.38058H6.22C5.98804 8.38058 5.8 8.58045 5.8 8.82701Z" fill="#FFF8EC"/>
<path fill-rule="evenodd" clip-rule="evenodd" d="M8.60001 8.82701C8.60001 9.07356 8.78805 9.27344 9.02001 9.27344H9.58001C9.81197 9.27344 10 9.07356 10 8.82701C10 8.58045 9.81197 8.38058 9.58001 8.38058H9.02001C8.78805 8.38058 8.60001 8.58045 8.60001 8.82701Z" fill="#FFF8EC"/>
<path fill-rule="evenodd" clip-rule="evenodd" d="M9.07142 1.87338e-08C8.83473 8.3874e-09 8.64285 0.191881 8.64285 0.428579L8.64285 2.1429C8.64285 2.37959 8.83473 2.57148 9.07142 2.57148C9.30812 2.57148 9.5 2.37959 9.5 2.1429L9.5 0.428579C9.5 0.191881 9.30812 2.90802e-08 9.07142 1.87338e-08Z" fill="#FFF8EC"/>
<path fill-rule="evenodd" clip-rule="evenodd" d="M3.92853 1.87338e-08C3.69183 8.3874e-09 3.49995 0.191881 3.49995 0.428579L3.49995 2.1429C3.49995 2.37959 3.69183 2.57148 3.92853 2.57148C4.16522 2.57148 4.3571 2.37959 4.3571 2.1429L4.3571 0.428579C4.3571 0.191881 4.16522 2.90802e-08 3.92853 1.87338e-08Z" fill="#FFF8EC"/>
</svg>
