<svg width="15" height="16" viewBox="0 0 15 16" fill="none" xmlns="http://www.w3.org/2000/svg">
<g clip-path="url(#clip0_1006_15594)">
<path d="M12.4737 5.37778V4.11111C12.4737 3.5 12 3 11.4211 3H4.05263C3.46842 3 3 3.5 3 4.11111V11.8889C3 12.5 3.46842 13 4.05263 13H11.4211C12 13 12.4737 12.5 12.4737 11.8889V10.6222C12.7842 10.4278 13 10.0778 13 9.66667V6.33333C13 5.92222 12.7842 5.57222 12.4737 5.37778ZM12.0435 6.33333V9.66667H8.26316V6.33333H12.0435ZM3.94737 12V4H11.5263V5.37778H8.26316C7.68421 5.37778 7.31579 5.72222 7.31579 6.33333V9.66667C7.31579 10.2778 7.68421 10.6222 8.26316 10.6222H11.5263V12H3.94737Z" fill="#FFF8EC"/>
<path d="M10 8.9375C10.5178 8.9375 10.9375 8.51777 10.9375 8C10.9375 7.48223 10.5178 7.0625 10 7.0625C9.48223 7.0625 9.0625 7.48223 9.0625 8C9.0625 8.51777 9.48223 8.9375 10 8.9375Z" fill="#FFF8EC"/>
</g>
<defs>
<clipPath id="clip0_1006_15594">
<rect width="15" height="15" fill="white" transform="translate(0 0.5)"/>
</clipPath>
</defs>
</svg>
