<svg width="15" height="16" viewBox="0 0 15 16" fill="none" xmlns="http://www.w3.org/2000/svg">
<path d="M10.3594 6.76364L11.4221 7.33848L11.6445 7.46346C12.1185 7.72974 12.1185 8.41624 11.6445 8.68252L8.62623 10.3783C7.92622 10.7716 7.07378 10.7716 6.37377 10.3783L3.35546 8.68252C2.88151 8.41624 2.88151 7.72974 3.35546 7.46346L3.57792 7.33848L4.58167 6.76364M10.5905 9.32304L11.5565 9.80927C12.0546 10.06 12.0706 10.7699 11.5843 11.0431L8.62623 12.705C7.92622 13.0983 7.07378 13.0983 6.37377 12.705L3.4589 11.0674C2.9642 10.7894 2.99146 10.0639 3.5056 9.82436L4.58167 9.32304M8.62623 7.90558L11.6445 6.2098C12.1185 5.94352 12.1185 5.25703 11.6445 4.99075L8.62623 3.29496C7.92622 2.90168 7.07378 2.90168 6.37377 3.29496L3.35546 4.99074C2.88151 5.25702 2.88151 5.94352 3.35546 6.2098L6.37377 7.90558C7.07378 8.29887 7.92622 8.29887 8.62623 7.90558Z" stroke="#FFF8EC" stroke-width="0.8"/>
</svg>
