<svg width="24" height="25" viewBox="0 0 24 25" fill="none" xmlns="http://www.w3.org/2000/svg">
<path d="M18.5303 10.0303C18.8232 9.73744 18.8232 9.26256 18.5303 8.96967C18.2374 8.67678 17.7626 8.67678 17.4697 8.96967L18.5303 10.0303ZM6.53033 8.96967C6.23744 8.67678 5.76256 8.67678 5.46967 8.96967C5.17678 9.26256 5.17678 9.73744 5.46967 10.0303L6.53033 8.96967ZM12.8485 14.6515L13.3789 15.1818L12.8485 14.6515ZM17.4697 8.96967L12.3182 14.1211L13.3789 15.1818L18.5303 10.0303L17.4697 8.96967ZM11.6818 14.1211L6.53033 8.96967L5.46967 10.0303L10.6211 15.1818L11.6818 14.1211ZM12.3182 14.1211C12.1425 14.2969 11.8575 14.2969 11.6818 14.1211L10.6211 15.1818C11.3827 15.9433 12.6173 15.9433 13.3789 15.1818L12.3182 14.1211Z" fill="#DBD5D2"/>
</svg>
