<svg width="24" height="25" viewBox="0 0 24 25" fill="none" xmlns="http://www.w3.org/2000/svg">
<path d="M18.5303 14.9697C18.8232 15.2626 18.8232 15.7374 18.5303 16.0303C18.2374 16.3232 17.7626 16.3232 17.4697 16.0303L18.5303 14.9697ZM6.53033 16.0303C6.23744 16.3232 5.76256 16.3232 5.46967 16.0303C5.17678 15.7374 5.17678 15.2626 5.46967 14.9697L6.53033 16.0303ZM12.8485 10.3485L13.3789 9.8182L12.8485 10.3485ZM17.4697 16.0303L12.3182 10.8789L13.3789 9.8182L18.5303 14.9697L17.4697 16.0303ZM11.6818 10.8789L6.53033 16.0303L5.46967 14.9697L10.6211 9.8182L11.6818 10.8789ZM12.3182 10.8789C12.1425 10.7031 11.8575 10.7031 11.6818 10.8789L10.6211 9.8182C11.3827 9.05667 12.6173 9.05668 13.3789 9.8182L12.3182 10.8789Z" fill="#DBD5D2"/>
</svg>
