<svg width="22" height="22" viewBox="0 0 22 22" fill="none" xmlns="http://www.w3.org/2000/svg">
<path d="M21 3C21 1.89543 20.1046 1 19 1L3 1C1.89543 1 1 1.89543 1 3L1 3.81751C1 4.57739 1.28836 5.30895 1.80683 5.86447L7.46211 11.9237C7.80776 12.294 8 12.7817 8 13.2883L8 17.382C8 17.7607 8.214 18.107 8.55279 18.2764L12.5528 20.2764C13.2177 20.6088 14 20.1253 14 19.382L14 13.2883C14 12.7817 14.1922 12.294 14.5379 11.9237L20.1932 5.86446C20.7116 5.30895 21 4.57739 21 3.81751L21 3Z" stroke="#DBD5D2" stroke-width="1.5"/>
</svg>
