<svg width="14" height="14" viewBox="0 0 14 14" fill="none" xmlns="http://www.w3.org/2000/svg">
<path fill-rule="evenodd" clip-rule="evenodd" d="M9.1 2.45C9.1 1.0969 10.1969 0 11.55 0C12.9031 0 14 1.0969 14 2.45C14 3.8031 12.9031 4.9 11.55 4.9C10.8622 4.9 10.2405 4.61654 9.79553 4.16007L6.76891 5.74666C6.91819 6.13578 7 6.55834 7 7C7 7.44166 6.91819 7.86421 6.76891 8.25333L9.79553 9.83993C10.2405 9.38346 10.8622 9.1 11.55 9.1C12.9031 9.1 14 10.1969 14 11.55C14 12.9031 12.9031 14 11.55 14C10.1969 14 9.1 12.9031 9.1 11.55C9.1 11.3891 9.1155 11.2319 9.1451 11.0797L6.01196 9.43722C5.37588 10.0927 4.48551 10.5 3.5 10.5C1.567 10.5 0 8.933 0 7C0 5.067 1.567 3.5 3.5 3.5C4.4855 3.5 5.37587 3.90731 6.01195 4.56277L9.1451 2.92034C9.1155 2.76812 9.1 2.61087 9.1 2.45Z" fill="#DBD5D2"/>
</svg>
