<?xml version="1.0" encoding="utf-8"?>
<!-- Svg Vector Icons : http://www.onlinewebfonts.com/icon -->
<!DOCTYPE svg PUBLIC "-//W3C//DTD SVG 1.1//EN" "http://www.w3.org/Graphics/SVG/1.1/DTD/svg11.dtd">
<svg version="1.1" xmlns="http://www.w3.org/2000/svg" xmlns:xlink="http://www.w3.org/1999/xlink" x="0px" y="0px" viewBox="0 0 1000 1000" enable-background="new 0 0 1000 1000" xml:space="preserve">
<metadata> Svg Vector Icons : http://www.onlinewebfonts.com/icon </metadata>
<g><g transform="translate(0.000000,511.000000) scale(0.100000,-0.100000)"><path d="M6636.2,4719.9c-464.8-116.2-1764-439.4-2885.7-720.4c-1121.7-278.8-2078.7-517.6-2123.1-532.3c-50.7-14.8-128.9-69.7-202.8-143.7c-95.1-95.1-126.7-143.6-160.5-251.4l-40.1-133.1l-128.8-46.5c-202.8-73.9-359.1-175.3-532.4-348.6c-166.9-169-266.2-316.9-352.8-528.1C95.9,1728.6,95.9,1766.6,102.2-920.5c8.5-2799.1-6.3-2558.2,179.6-2936.4c82.4-166.9,128.9-230.3,278.9-380.3c200.7-200.7,399.2-319,678.1-405.6l158.4-48.6l3168.8-6.3c2239.3-4.2,3221.6,0,3348.3,16.9c450,59.2,823.9,276.7,1090,633.8c133.1,179.6,249.3,477.4,274.6,703.5c8.5,71.8,16.9,454.2,16.9,849.2l2.1,718.3l181.7,10.6c158.4,10.6,192.2,19,262,71.8c150,114.1,158.4,156.3,158.4,842.9c0,673.9-4.2,697.1-133.1,811.2c-90.8,80.3-192.3,112-357,112h-120.4l-6.3,840.8l-6.3,838.7l-59.2,169c-76.1,217.6-192.2,414.1-348.6,585.2l-124.6,139.4l-16.9,207c-25.4,367.6-50.7,511.2-103.5,616.8s-158.4,213.4-261.9,266.2c-52.8,27.5-65.5,59.2-150,405.6c-50.7,209.1-109.8,411.9-131,452.1c-50.7,103.5-181.7,221.8-293.6,272.5C7586.8,4954.4,7553,4950.1,6636.2,4719.9z M7789.6,4711.4c131-88.7,177.5-181.7,270.4-551.4c46.5-185.9,82.4-338,80.3-340.1c-2.1,0-1434.4-126.7-3181.4-281c-1897.1-169-3211-293.6-3259.6-310.5c-92.9-31.7-261.9-143.6-276.7-181.7c-8.5-19-12.7-16.9-12.7,6.3c-4.2,57,118.3,204.9,202.8,249.3c44.4,21.1,1098.5,293.6,2340.7,602.1c1244.3,310.5,2541.4,633.8,2883.6,720.4C7542.5,4802.3,7637.5,4810.7,7789.6,4711.4z M8222.7,3631.9c223.9-65.5,314.8-215.5,346.5-564c10.6-131,21.1-255.6,21.1-276.7c0-31.7-21.1-25.4-150,40.1c-82.4,40.1-223.9,95.1-312.7,120.4l-160.5,46.5l-3179.3,10.6c-3135,10.6-3179.3,10.6-3105.4,50.7c52.8,29.6,164.8,48.6,401.4,71.8c616.9,59.2,5883.3,526,5959.4,530.2C8083.2,3661.5,8165.6,3648.8,8222.7,3631.9z M8070.6,2734.1c445.7-114.1,798.5-443.6,946.4-887.3c44.4-131,46.5-181.7,54.9-954.9l6.3-819.6h-283.1c-266.2,0-285.2,2.1-295.8,42.2c-6.3,23.2-27.5,42.3-46.5,42.3c-19,0-40.1-19-46.5-42.3c-10.6-40.1-29.6-42.2-638-42.2c-494.3,0-652.8-6.3-752-31.7c-568.3-150-853.5-754.2-604.2-1288.6c122.5-262,384.5-464.7,676-517.6c61.3-12.7,382.4-21.1,709.8-21.1c578.8,0,597.8-2.1,608.4-42.2c14.8-54.9,78.2-54.9,93,0c10.6,40.1,29.6,42.2,295.8,42.2h283.1l-6.3-807c-6.3-766.8-10.6-815.4-52.8-946.4c-95.1-278.9-291.5-542.9-528.1-705.6c-183.8-124.6-388.7-196.5-642.2-223.9c-126.8-12.7-1326.7-19-3293.4-14.8c-2860.3,6.3-3105.4,8.5-3221.6,42.2c-416.2,120.4-711.9,367.6-889.4,741.5C305-3407,307.1-3459.8,315.5-760c6.4,2258.3,8.5,2435.7,44.4,2551.9c71.8,242.9,175.3,414.1,359.1,593.6c190.1,188,325.3,270.4,561.9,342.2l158.4,46.5h3234.3C7825.5,2776.4,7912.1,2774.2,8070.6,2734.1z M9638-204.4c38-40.1,40.1-88.7,46.5-614.7c8.5-604.2,0-665.4-86.6-711.9c-33.8-19-369.7-23.2-1292.9-19l-1246.4,6.3l-105.6,52.8c-135.2,65.5-283.1,213.4-348.6,348.6c-40.1,84.5-50.7,139.4-50.7,285.2c-2.1,154.2,6.3,196.5,54.9,295.7c76,154.2,213.4,285.2,367.6,348.6l124.6,52.8h1248.5C9591.6-160,9597.9-160,9638-204.4z"/><path d="M1682.3,2174.3c-23.2-27.5-23.2-38,4.2-65.5c25.4-25.3,61.3-27.5,198.6-14.8c147.9,14.8,166.9,21.1,166.9,59.2c0,38-16.9,42.2-171.1,48.6C1745.7,2206,1703.5,2199.6,1682.3,2174.3z"/><path d="M2373.1,2178.5c-25.4-63.4,16.9-80.3,198.6-73.9c160.5,6.3,177.4,10.6,177.4,48.6c0,38-16.9,42.2-181.7,48.6C2428.1,2206,2381.6,2201.8,2373.1,2178.5z"/><path d="M3076.6,2153.2c0-52.8,2.1-52.8,190.1-52.8c188,0,190.1,0,190.1,52.8s-2.1,52.8-190.1,52.8C3078.7,2206,3076.6,2206,3076.6,2153.2z"/><path d="M3773.7,2153.2c0-52.8,2.1-52.8,190.1-52.8c188,0,190.1,0,190.1,52.8s-2.1,52.8-190.1,52.8C3775.9,2206,3773.7,2206,3773.7,2153.2z"/><path d="M4479.3,2174.3c-23.3-59.2,14.8-73.9,192.2-73.9c175.3,0,207,14.8,185.9,80.3C4842.7,2220.8,4494.1,2216.5,4479.3,2174.3z"/><path d="M5176.4,2174.3c-23.3-61.3,23.2-76.1,204.9-69.7c160.5,6.3,177.4,10.6,177.4,48.6c0,38-16.9,42.2-185.9,48.6C5218.7,2206,5187,2201.8,5176.4,2174.3z"/><path d="M5873.6,2174.3c-23.3-61.3,23.2-76.1,204.9-69.7c160.6,6.3,177.5,10.6,177.5,48.6c0,38-16.9,42.2-185.9,48.6C5915.8,2206,5884.1,2201.8,5873.6,2174.3z"/><path d="M6570.7,2174.3c-23.3-61.3,23.2-76.1,204.9-69.7c160.6,6.3,177.5,10.6,177.5,48.6c0,38-16.9,42.2-185.9,48.6C6612.9,2206,6581.3,2201.8,6570.7,2174.3z"/><path d="M7265.7,2172.2c-19-52.8,16.9-67.6,188-73.9c171.1-8.4,223.9,12.7,200.7,73.9c-10.6,27.5-48.6,33.8-194.4,33.8S7276.3,2199.6,7265.7,2172.2z"/><path d="M7948,2043.3c-10.6-25.4,19-65.5,107.8-145.8c118.3-109.8,179.6-135.2,207-92.9c25.4,42.2-14.8,103.5-124.6,188C8017.8,2085.6,7969.2,2098.2,7948,2043.3z"/><path d="M1198.6,1929.2c-109.9-107.7-135.2-179.6-73.9-202.8c48.6-19,289.4,226,270.4,274.6C1371.8,2062.3,1312.7,2041.2,1198.6,1929.2z"/><path d="M8368.4,1508.9c-16.9-27.5,27.5-321.1,52.8-346.4c44.4-44.4,84.5,6.3,84.5,107.7c0,150-35.9,259.8-84.5,259.8C8400.1,1530,8374.8,1519.4,8368.4,1508.9z"/><path d="M924,1426.5c-12.7-23.2-23.2-109.9-23.2-192.2c0-116.2,6.3-152.1,33.8-162.7c54.9-21.1,69.7,16.9,76,204.9c6.3,154.2,2.1,179.6-29.6,185.9C962,1466.6,936.6,1449.7,924,1426.5z"/><path d="M8400.1,642.7c0-188,0-190.1,52.8-190.1s52.8,2.1,52.8,190.1c0,188,0,190.1-52.8,190.1S8400.1,830.7,8400.1,642.7z"/><path d="M911.3,742c-6.3-14.8-10.6-103.5-6.3-196.5c6.3-150,10.6-166.9,48.6-166.9c40.1,0,42.2,14.8,42.2,190.1c0,164.8-4.2,190.1-38,196.5C938.7,769.5,917.6,758.9,911.3,742z"/><path d="M911.3,44.9c-6.3-14.8-10.6-103.5-6.3-196.5c6.3-150,10.6-166.9,48.6-166.9c40.1,0,42.2,14.8,42.2,190.1c0,164.8-4.2,190.1-38,196.5C938.7,72.4,917.6,61.8,911.3,44.9z"/><path d="M924-643.8c-16.9-10.6-23.2-71.8-19-194.4c6.3-160.5,10.6-177.4,48.6-177.4c38,0,42.2,16.9,48.6,181.7c4.2,139.4,0,185.9-23.2,194.4C962-633.2,938.7-635.3,924-643.8z"/><path d="M900.7-1535.3c0-185.9,2.1-190.1,48.6-183.8c44.4,6.3,46.5,16.9,52.8,192.2l6.3,183.8h-54.9C900.7-1343,900.7-1343,900.7-1535.3z"/><path d="M900.7-2230.3c0-188,0-190.1,52.8-190.1c52.8,0,52.8,2.1,52.8,190.1c0,188,0,190.1-52.8,190.1C900.7-2040.2,900.7-2042.3,900.7-2230.3z"/><path d="M8410.7-2194.4c-6.3-14.8-10.6-103.5-6.3-196.5c6.3-150,10.6-166.9,48.6-166.9c40.1,0,42.2,14.8,42.2,190.1c0,164.8-4.2,190.1-38,196.5C8438.1-2166.9,8417-2177.5,8410.7-2194.4z"/><path d="M911.3-2764.7c-6.3-14.8-10.6-99.3-6.3-185.9c6.3-143.6,10.6-156.3,54.9-162.6c63.4-8.5,69.7,21.1,52.8,207c-12.7,126.7-25.3,158.4-54.9,164.8C938.7-2737.3,915.5-2747.9,911.3-2764.7z"/><path d="M8400.1-2916.9c-10.6-29.6-21.1-76-21.1-101.4c0-25.4-8.5-80.3-21.1-120.4c-23.2-82.4,8.5-137.3,69.7-114.1c40.1,14.8,84.5,196.5,73.9,304.2C8493.1-2855.6,8431.8-2834.5,8400.1-2916.9z"/><path d="M1084.5-3407c-35.9-33.8-6.3-92.9,93-194.4c109.8-109.8,173.2-135.2,196.5-71.8c10.6,25.4-21.1,71.8-107.7,158.4C1150-3396.4,1114.1-3375.3,1084.5-3407z"/><path d="M8083.2-3571.7c-50.7-42.3-107.7-84.5-128.8-97.2c-48.6-25.4-52.8-95.1-6.4-112c67.6-25.3,310.5,160.6,300,230.3C8237.5-3483,8180.4-3491.5,8083.2-3571.7z"/><path d="M1648.5-3802c-6.3-19-2.1-48.6,12.7-65.5c35.9-42.2,348.6-46.5,365.5-4.2c21.1,54.9-19,73.9-190.1,88.7C1686.6-3770.3,1659.1-3772.4,1648.5-3802z"/><path d="M2345.7-3825.2c-23.3-61.3,23.2-76,204.9-69.7c160.5,6.3,177.4,10.6,177.4,48.6c0,38-16.9,42.3-185.9,48.6C2387.9-3793.5,2356.2-3797.8,2345.7-3825.2z"/><path d="M3042.8-3825.2c-23.3-61.3,23.2-76,204.9-69.7c160.5,6.3,177.4,10.6,177.4,48.6c0,38-16.9,42.3-185.9,48.6C3085.1-3793.5,3053.4-3797.8,3042.8-3825.2z"/><path d="M3739.9-3825.2c-23.3-61.3,23.2-76,204.9-69.7c160.5,6.3,177.4,10.6,177.4,48.6c0,38-16.9,42.3-185.9,48.6C3782.2-3793.5,3750.5-3797.8,3739.9-3825.2z"/><path d="M4443.4-3821c-25.4-63.4,16.9-80.3,198.6-73.9c160.5,6.3,177.4,10.6,177.4,48.6c0,38-16.9,42.3-181.7,48.6C4498.3-3793.5,4451.9-3797.8,4443.4-3821z"/><path d="M5140.5-3821c-25.4-63.4,16.9-80.3,198.6-73.9c160.5,6.3,177.4,10.6,177.4,48.6c0,38-16.9,42.3-181.7,48.6C5195.4-3793.5,5149-3797.8,5140.5-3821z"/><path d="M5844-3846.4c0-52.8,2.1-52.8,190.1-52.8c188,0,190.1,0,190.1,52.8s-2.1,52.8-190.1,52.8C5846.1-3793.5,5844-3793.5,5844-3846.4z"/><path d="M6541.1-3846.4c0-52.8,2.1-52.8,190.1-52.8c188,0,190.1,0,190.1,52.8s-2.1,52.8-190.1,52.8C6543.2-3793.5,6541.1-3793.5,6541.1-3846.4z"/><path d="M7246.7-3825.2c-23.2-59.1,14.8-73.9,192.2-73.9c175.3,0,207,14.8,185.9,80.3C7610-3778.7,7261.5-3783,7246.7-3825.2z"/><path d="M7145.3-443.1c-264.1-97.2-369.7-424.6-211.3-650.7c188-266.2,580.9-236.6,730.9,54.9C7834-711.4,7489.6-316.4,7145.3-443.1z M7422-603.7c169-101.4,192.2-316.9,50.7-452.1c-50.7-48.6-88.7-63.4-181.7-71.8c-112-8.5-118.3-6.4-200.7,76c-82.4,82.4-97.2,122.5-84.5,257.7c10.6,116.2,150,230.3,285.2,232.4C7327-561.4,7384-580.4,7422-603.7z"/></g></g>
</svg>