<svg width="14" height="14" viewBox="0 0 14 14" fill="none" xmlns="http://www.w3.org/2000/svg">
<path d="M7 7C5.30863 7 3.9375 5.62887 3.9375 3.9375C3.9375 2.24613 5.30863 0.875 7 0.875C8.69137 0.875 10.0625 2.24613 10.0625 3.9375C10.0625 5.62887 8.69137 7 7 7Z" fill="#DBD5D2" stroke="#DBD5D2" stroke-width="1.5"/>
<path d="M1.75 11.2695C1.75 10.7809 2.15564 10.345 2.76332 10.1807C5.503 9.43976 8.497 9.43976 11.2367 10.1807C11.8443 10.345 12.25 10.7809 12.25 11.2695V12.0166C12.25 12.691 11.4612 13.2091 10.5796 13.1136L9.8638 13.0362C7.9642 12.8308 6.0358 12.8308 4.13621 13.0362L3.42041 13.1136C2.53877 13.2091 1.75 12.691 1.75 12.0166V11.2695Z" fill="#DBD5D2" stroke="#DBD5D2" stroke-width="1.5"/>
</svg>
