<svg width="14.000000000000002" height="14.000000000000002" xmlns="http://www.w3.org/2000/svg" version="1.1" class="svg-icon">

 <g>
  <title>Layer 1</title>
  <path fill="#ffffff" id="svg_2" d="m4.16108,6.11717l-2.14452,0a1.96939,1.96624 0 0 1 -1.96581,-1.96266l0,-2.14109c0,-1.08126 0.88283,-1.96267 1.96581,-1.96267l2.14452,0c1.08299,0 1.96582,0.88141 1.96582,1.96267l0,2.14109c0,1.08125 -0.88283,1.96266 -1.96582,1.96266zm0,7.85067l-2.14452,0a1.96939,1.96624 0 0 1 -1.96581,-1.96266l0,-2.1411c0,-1.08125 0.88283,-1.96266 1.96581,-1.96266l2.14452,0c1.08299,0 1.96582,0.88141 1.96582,1.96266l0,2.1411c0,1.08125 -0.88283,1.96266 -1.96582,1.96266zm7.86325,-7.85067l-2.14452,0a1.96939,1.96624 0 0 1 -1.96581,-1.96266l0,-2.14109c0,-1.08126 0.88283,-1.96267 1.96581,-1.96267l1.16162,0c0.29666,0 0.53613,0.23909 0.53613,0.53527s-0.23947,0.53527 -0.53613,0.53527l-1.16162,0a0.89355,0.89212 0 0 0 -0.89355,0.89213l0,2.14109a0.89355,0.89212 0 0 0 0.89355,0.89212l2.14452,0a0.89355,0.89212 0 0 0 0.89355,-0.89212l0,-0.80291c0,-0.29619 0.23948,-0.53528 0.53613,-0.53528s0.53613,0.23909 0.53613,0.53528l0,0.80291c0,1.08125 -0.88282,1.96266 -1.96581,1.96266zm0,7.85067l-2.14452,0a1.96939,1.96624 0 0 1 -1.96581,-1.96266l0,-2.1411c0,-1.08125 0.88283,-1.96266 1.96581,-1.96266l2.14452,0c1.08299,0 1.96581,0.88141 1.96581,1.96266l0,2.1411c0,1.08125 -0.88282,1.96266 -1.96581,1.96266zm1.07226,-12.22206c-0.13582,0 -0.27521,-0.05353 -0.37886,-0.15701l-0.08936,-0.08922a0.53256,0.5317 0 0 1 0,-0.75652a0.53256,0.5317 0 0 1 0.75773,0l0.08936,0.08922c0.21088,0.21054 0.21088,0.54954 0,0.75652c-0.10365,0.10348 -0.24305,0.15701 -0.37887,0.15701z"/>
 </g>
</svg>