<svg width="18" height="18" viewBox="0 0 18 18" fill="none" xmlns="http://www.w3.org/2000/svg">
<rect width="18" height="18" rx="9" fill="#222223"/>
<path fill-rule="evenodd" clip-rule="evenodd" d="M10.5 5.75C10.5 4.7835 11.2835 4 12.25 4C13.2165 4 14 4.7835 14 5.75C14 6.7165 13.2165 7.5 12.25 7.5C11.7587 7.5 11.3147 7.29753 10.9968 6.97148L8.83493 8.10476C8.94157 8.3827 9 8.68453 9 9C9 9.31547 8.94157 9.61729 8.83494 9.89523L10.9968 11.0285C11.3147 10.7025 11.7587 10.5 12.25 10.5C13.2165 10.5 14 11.2835 14 12.25C14 13.2165 13.2165 14 12.25 14C11.2835 14 10.5 13.2165 10.5 12.25C10.5 12.1351 10.5111 12.0228 10.5322 11.914L8.29426 10.7409C7.83992 11.2091 7.20393 11.5 6.5 11.5C5.11929 11.5 4 10.3807 4 9C4 7.61929 5.11929 6.5 6.5 6.5C7.20393 6.5 7.83991 6.79093 8.29425 7.25912L10.5322 6.08595C10.5111 5.97723 10.5 5.86491 10.5 5.75Z" fill="url(#paint0_linear_504_10581)"/>
<defs>
<linearGradient id="paint0_linear_504_10581" x1="4" y1="4" x2="6.47954" y2="15.6066" gradientUnits="userSpaceOnUse">
<stop stop-color="#FFC84C"/>
<stop offset="1" stop-color="#FC8032"/>
</linearGradient>
</defs>
</svg>
