<svg width="100%" height="100%" viewBox="0 0 168 30" fill="none" xmlns="http://www.w3.org/2000/svg">
<path d="M1.66211 30V26.1328H14.1719C14.7969 26.1328 15.334 25.9082 15.7832 25.459C16.2324 25.0098 16.457 24.4727 16.457 23.8477C16.457 23.2031 16.2324 22.6562 15.7832 22.207C15.334 21.7773 14.7969 21.5625 14.1719 21.5625L7.08203 21.5332C5.38281 21.5332 3.9375 20.9375 2.74609 19.7461C1.53516 18.5352 0.929688 17.0801 0.929688 15.3809C0.929688 13.6816 1.53516 12.2363 2.74609 11.0449C3.9375 9.83398 5.38281 9.22852 7.08203 9.22852H17.8926V13.0957H7.08203C6.45703 13.0957 5.91992 13.3203 5.4707 13.7695C5.02148 14.2188 4.79688 14.7559 4.79688 15.3809C4.79688 16.0254 5.02148 16.5723 5.4707 17.0215C5.91992 17.4707 6.45703 17.6953 7.08203 17.6953H14.1719C15.8711 17.6953 17.3262 18.291 18.5371 19.4824C19.7285 20.6934 20.3242 22.1484 20.3242 23.8477C20.3242 25.5469 19.7285 27.002 18.5371 28.2129C17.3262 29.4043 15.8711 30 14.1719 30H1.66211Z" fill="white"/>
<path d="M33.1738 26.1035C31.3574 26.1035 29.8145 25.4688 28.5449 24.1992C27.2754 22.9297 26.6406 21.3965 26.6406 19.5996C26.6406 17.8027 27.2754 16.2598 28.5449 14.9707C29.8145 13.7012 31.3574 13.0664 33.1738 13.0664C34.9707 13.0664 36.5039 13.7012 37.7734 14.9707C39.043 16.2598 39.6777 17.8027 39.6777 19.5996C39.6777 21.3965 39.043 22.9297 37.7734 24.1992C36.5039 25.4688 34.9707 26.1035 33.1738 26.1035ZM33.1738 9.19922C30.752 9.19922 28.5742 9.99023 26.6406 11.5723V0.0585938H22.7734V19.5996C22.7734 22.4512 23.7891 24.8926 25.8203 26.9238C27.8516 28.9551 30.3027 29.9707 33.1738 29.9707C36.0254 29.9707 38.4668 28.9551 40.498 26.9238C42.5293 24.8926 43.5449 22.4512 43.5449 19.5996C43.5449 16.7285 42.5293 14.2773 40.498 12.2461C38.4668 10.2148 36.0254 9.19922 33.1738 9.19922Z" fill="white"/>
<path d="M56.4531 26.1328C54.6562 26.1328 53.123 25.498 51.8535 24.2285C50.584 22.959 49.9492 21.4258 49.9492 19.6289C49.9492 17.832 50.584 16.2891 51.8535 15C53.123 13.7305 54.6562 13.0957 56.4531 13.0957C58.25 13.0957 59.793 13.7305 61.082 15C62.3516 16.2891 62.9863 17.832 62.9863 19.6289C62.9863 21.4258 62.3516 22.959 61.082 24.2285C59.793 25.498 58.25 26.1328 56.4531 26.1328ZM66.8535 19.6289C66.8535 16.7578 65.8379 14.3066 63.8066 12.2754C61.7754 10.2441 59.3242 9.22852 56.4531 9.22852C53.6016 9.22852 51.1602 10.2441 49.1289 12.2754C47.0977 14.3066 46.082 16.7578 46.082 19.6289C46.082 22.4805 47.0977 24.9219 49.1289 26.9531C51.1602 28.9844 53.6016 30 56.4531 30C58.875 30 61.0527 29.209 62.9863 27.627V29.9707H66.8535V19.6289Z" fill="white"/>
<path d="M75.7773 26.1328H75.6016C74.9766 26.1328 74.4395 25.9082 73.9902 25.459C73.541 25.0098 73.3164 24.4727 73.3164 23.8477V0.0878906H69.4492V23.8477C69.4492 25.5469 70.0547 27.002 71.2656 28.2129C72.457 29.4043 73.9023 30 75.6016 30H75.7773V26.1328Z" fill="white"/>
<path d="M88.5391 26.1328C86.7422 26.1328 85.209 25.498 83.9395 24.2285C82.6699 22.959 82.0352 21.4258 82.0352 19.6289C82.0352 17.832 82.6699 16.2891 83.9395 15C85.209 13.7305 86.7422 13.0957 88.5391 13.0957C90.3359 13.0957 91.8789 13.7305 93.168 15C94.4375 16.2891 95.0723 17.832 95.0723 19.6289C95.0723 21.4258 94.4375 22.959 93.168 24.2285C91.8789 25.498 90.3359 26.1328 88.5391 26.1328ZM98.9395 19.6289C98.9395 16.7578 97.9238 14.3066 95.8926 12.2754C93.8613 10.2441 91.4102 9.22852 88.5391 9.22852C85.6875 9.22852 83.2461 10.2441 81.2148 12.2754C79.1836 14.3066 78.168 16.7578 78.168 19.6289C78.168 22.4805 79.1836 24.9219 81.2148 26.9531C83.2461 28.9844 85.6875 30 88.5391 30C90.9609 30 93.1387 29.209 95.0723 27.627V29.9707H98.9395V19.6289Z" fill="white"/>
<path d="M105.402 30V19.6289C105.402 17.832 106.037 16.2891 107.307 15C108.576 13.7305 110.109 13.0957 111.906 13.0957C113.703 13.0957 115.236 13.7305 116.506 15C117.795 16.2891 118.439 17.832 118.439 19.6289V30H122.307V19.6289C122.307 16.7578 121.291 14.3066 119.26 12.2754C117.229 10.2441 114.777 9.22852 111.906 9.22852C109.055 9.22852 106.613 10.2441 104.582 12.2754C102.551 14.3066 101.535 16.7578 101.535 19.6289V30H105.402Z" fill="white"/>
<path d="M135.303 26.1328C133.486 26.1328 131.943 25.498 130.674 24.2285C129.404 22.959 128.77 21.4258 128.77 19.6289C128.77 17.832 129.404 16.2891 130.674 15C131.943 13.7305 133.486 13.0957 135.303 13.0957C137.744 13.0957 139.609 14.1699 140.898 16.3184L144.092 14.1797C143.154 12.6758 141.924 11.4844 140.4 10.6055C138.818 9.6875 137.119 9.22852 135.303 9.22852C132.432 9.22852 129.98 10.2441 127.949 12.2754C125.918 14.3066 124.902 16.7578 124.902 19.6289C124.902 22.4805 125.918 24.9219 127.949 26.9531C129.98 28.9844 132.432 30 135.303 30C137.1 30 138.867 29.5801 140.605 28.7402C142.363 27.9004 143.701 26.7969 144.619 25.4297L141.426 23.2617C140.84 24.1016 139.951 24.7949 138.76 25.3418C137.607 25.8691 136.455 26.1328 135.303 26.1328Z" fill="white"/>
<path d="M157.088 13.0957C158.514 13.0957 159.803 13.5254 160.955 14.3848C162.068 15.2441 162.84 16.3477 163.27 17.6953H150.877C151.307 16.3477 152.078 15.2441 153.191 14.3848C154.344 13.5254 155.643 13.0957 157.088 13.0957ZM167.283 21.5332C167.4 20.9082 167.459 20.2734 167.459 19.6289C167.459 16.7578 166.443 14.3066 164.412 12.2754C162.381 10.2441 159.939 9.22852 157.088 9.22852C154.217 9.22852 151.766 10.2441 149.734 12.2754C147.703 14.3066 146.688 16.7578 146.688 19.6289C146.688 22.4805 147.703 24.9219 149.734 26.9531C151.766 28.9844 154.217 30 157.088 30C158.885 30 160.652 29.5801 162.391 28.7402C164.148 27.9004 165.486 26.7969 166.404 25.4297L163.211 23.2617C162.645 24.1016 161.756 24.7949 160.545 25.3418C159.393 25.8691 158.24 26.1328 157.088 26.1328C155.643 26.1328 154.344 25.7031 153.191 24.8438C152.078 23.9844 151.307 22.8906 150.877 21.5625L167.283 21.5332Z" fill="white"/>
</svg>
