<svg width="43" height="44" viewBox="0 0 43 44" fill="none" xmlns="http://www.w3.org/2000/svg">
<g clip-path="url(#clip0_1006_13984)">
<path d="M15.3333 9C15.3333 7.89543 16.2288 7 17.3333 7H25.3333C26.4379 7 27.3333 7.89543 27.3333 9V13H15.3333V9Z" stroke="#615F5C" stroke-width="1.5"/>
<path d="M24.5334 9H23.8934C23.5399 9 23.2534 9.29848 23.2534 9.66667V10.3333C23.2534 10.7015 23.5399 11 23.8934 11H24.5334C24.8868 11 25.1734 10.7015 25.1734 10.3333V9.66667C25.1734 9.29848 24.8868 9 24.5334 9Z" stroke="#615F5C"/>
<path d="M14.3829 17.1605C14.0989 18.6177 15.0714 20 16.3807 20H26.286C27.5953 20 28.5678 18.6177 28.2838 17.1605L27.4729 13H15.1938L14.3829 17.1605Z" stroke="#615F5C" stroke-width="1.5"/>
<path d="M16.8533 15.8008H21.9733" stroke="#615F5C" stroke-linecap="round" stroke-linejoin="round"/>
<path d="M16.8533 17.5996H24.5333" stroke="#615F5C" stroke-linecap="round" stroke-linejoin="round"/>
</g>
<path d="M14.5633 28.03V29.5C14.5633 31.03 13.4733 32.75 12.1833 33.38L12.6633 34.04C14.0733 33.32 15.2233 31.38 15.2233 29.5V28.03H14.5633ZM14.7133 28.03V29.5C14.7133 31.29 15.8033 33.11 17.2333 33.82L17.7033 33.16C16.3933 32.54 15.3733 30.93 15.3733 29.5V28.03H14.7133ZM12.5033 27.66V28.36H17.3733V27.66H12.5033ZM18.4433 26.74V35.78H19.2833V26.74H18.4433ZM19.0833 30.39V31.09H20.7633V30.39H19.0833ZM23.7526 27.29V28.4C23.7526 29.8 22.8726 31.02 21.4926 31.51L21.9326 32.17C23.4526 31.58 24.4326 30.17 24.4326 28.4V27.29H23.7526ZM23.8926 27.29V28.43C23.8926 30.02 24.8926 31.4 26.3826 31.94L26.7926 31.29C25.4726 30.82 24.5726 29.66 24.5726 28.43V27.29H23.8926ZM27.7126 26.73V33.41H28.5426V26.73H27.7126ZM28.2826 29.51V30.2H29.8826V29.51H28.2826ZM22.9326 34.9V35.58H28.9426V34.9H22.9326ZM22.9326 32.78V35.23H23.7626V32.78H22.9326Z" fill="#615F5C"/>
<defs>
<clipPath id="clip0_1006_13984">
<rect width="16" height="16" fill="white" transform="translate(13.3333 6)"/>
</clipPath>
</defs>
</svg>
