<svg width="42" height="32" viewBox="0 0 42 32" fill="none" xmlns="http://www.w3.org/2000/svg">
<path d="M13.5 7C13.5 6.52786 13.7223 6.08328 14.1 5.8L20.1 1.3C20.6333 0.9 21.3667 0.9 21.9 1.3L27.9 5.8C28.2777 6.08328 28.5 6.52786 28.5 7V14C28.5 14.8284 27.8284 15.5 27 15.5H25.5263C24.6979 15.5 24.0263 14.8284 24.0263 14V13.2C24.0263 11.8193 22.907 10.7 21.5263 10.7H20.4737C19.093 10.7 17.9737 11.8193 17.9737 13.2V14C17.9737 14.8284 17.3021 15.5 16.4737 15.5H15C14.1716 15.5 13.5 14.8284 13.5 14V7Z" fill="#DBD5D2" stroke="#DBD5D2"/>
<path d="M13.61 20.73V29.78H14.45V20.73H13.61ZM14.22 24.4V25.09H15.89V24.4H14.22ZM11.3 21.71V21.84C11.3 24.23 10.05 26.16 7.55 27.43L8.01 28.07C10.93 26.6 12.11 24.28 12.11 21.71H11.3ZM7.97 21.71V22.39H11.73V21.71H7.97ZM20.1992 23.25V23.92H22.2092V23.25H20.1992ZM20.1292 25.52V26.19H22.1892V25.52H20.1292ZM23.5792 20.74V29.78H24.3792V20.74H23.5792ZM21.7692 20.97V29.32H22.5492V20.97H21.7692ZM19.7492 21.88V22.03C19.7492 24.16 18.7992 25.96 16.6892 27.24L17.1692 27.83C19.5992 26.38 20.5492 24.25 20.5492 21.88H19.7492ZM17.0892 21.88V22.56H20.0792V21.88H17.0892ZM25.8884 26.09V26.77H34.0884V26.09H25.8884ZM29.5484 26.41V29.78H30.3684V26.41H29.5484ZM26.9184 21.1V25.01H33.0384V21.1H32.2184V22.34H27.7484V21.1H26.9184ZM27.7484 23.01H32.2184V24.34H27.7484V23.01Z" fill="#DBD5D2"/>
</svg>
