<svg width="47" height="42" viewBox="0 0 47 42" fill="none" xmlns="http://www.w3.org/2000/svg">
<rect x="13.5" y="2" width="20" height="20" rx="5" stroke="#DBD5D2" stroke-width="1.5"/>
<path d="M23.5 16L23.5 8" stroke="#DBD5D2" stroke-width="1.5" stroke-linecap="round" stroke-linejoin="round"/>
<path d="M18.5 16L18.5 10" stroke="#DBD5D2" stroke-width="1.5" stroke-linecap="round" stroke-linejoin="round"/>
<path d="M28.5 16L28.5 13" stroke="#DBD5D2" stroke-width="1.5" stroke-linecap="round" stroke-linejoin="round"/>
<path d="M12.588 34.836V35.64H22.392V34.836H12.588ZM16.992 33.432V35.172H17.976V33.432H16.992ZM13.884 32.988V33.768H21.24V32.988H13.884ZM13.884 29.4V33.408H14.868V30.18H21.192V29.4H13.884ZM14.58 31.176V31.944H20.904V31.176H14.58ZM17.484 36.444C15.12 36.444 13.764 37.044 13.764 38.184C13.764 39.312 15.12 39.912 17.484 39.912C19.848 39.912 21.204 39.312 21.204 38.184C21.204 37.044 19.848 36.444 17.484 36.444ZM17.484 37.2C19.224 37.2 20.196 37.548 20.196 38.184C20.196 38.832 19.224 39.168 17.484 39.168C15.744 39.168 14.772 38.832 14.772 38.184C14.772 37.548 15.744 37.2 17.484 37.2ZM27.8391 32.1V32.904H30.2511V32.1H27.8391ZM27.7551 34.824V35.628H30.2271V34.824H27.7551ZM31.8951 29.088V39.936H32.8551V29.088H31.8951ZM29.7231 29.364V39.384H30.6591V29.364H29.7231ZM27.2991 30.456V30.636C27.2991 33.192 26.1591 35.352 23.6271 36.888L24.2031 37.596C27.1191 35.856 28.2591 33.3 28.2591 30.456H27.2991ZM24.1071 30.456V31.272H27.6951V30.456H24.1071Z" fill="#DBD5D2"/>
</svg>
