<svg width="47" height="42" viewBox="0 0 47 42" fill="none" xmlns="http://www.w3.org/2000/svg">
<circle r="4" transform="matrix(-1 0 0 1 23.5 7)" stroke="#DBD5D2" stroke-width="1.5"/>
<path d="M16.5 16.9347C16.5 16.0743 17.0409 15.3068 17.8511 15.0175V15.0175C21.504 13.7128 25.496 13.7128 29.1489 15.0175V15.0175C29.9591 15.3068 30.5 16.0743 30.5 16.9347V18.2502C30.5 19.4376 29.4483 20.3498 28.2728 20.1818L27.3184 20.0455C24.7856 19.6837 22.2144 19.6837 19.6816 20.0455L18.7272 20.1818C17.5517 20.3498 16.5 19.4376 16.5 18.2502V16.9347Z" stroke="#DBD5D2" stroke-width="1.5"/>
<path d="M18.168 31.044V31.872H20.94V31.044H18.168ZM20.52 29.088V34.68H21.516V29.088H20.52ZM14.532 35.244V36.036H20.532V37.092H14.568V39.48H15.54V37.836H21.516V35.244H14.532ZM14.568 39V39.792H21.924V39H14.568ZM15.3 29.424V30.444C15.3 32.016 14.22 33.372 12.588 33.924L13.104 34.716C14.916 34.068 16.116 32.448 16.116 30.444V29.424H15.3ZM15.468 29.424V30.444C15.468 32.28 16.668 33.84 18.42 34.464L18.936 33.684C17.364 33.168 16.272 31.86 16.272 30.444V29.424H15.468ZM29.4231 31.896V32.724H31.8711V31.896H29.4231ZM31.5591 29.088V35.556H32.5551V29.088H31.5591ZM28.9911 35.88C26.7471 35.88 25.3671 36.636 25.3671 37.908C25.3671 39.192 26.7471 39.924 28.9911 39.924C31.2231 39.924 32.6031 39.192 32.6031 37.908C32.6031 36.636 31.2231 35.88 28.9911 35.88ZM28.9911 36.66C30.6231 36.66 31.6191 37.116 31.6191 37.908C31.6191 38.688 30.6231 39.144 28.9911 39.144C27.3591 39.144 26.3631 38.688 26.3631 37.908C26.3631 37.116 27.3591 36.66 28.9911 36.66ZM26.3991 30.18V31.056C26.3991 32.616 25.2831 34.068 23.6751 34.656L24.1911 35.448C25.9911 34.776 27.2151 33.06 27.2151 31.056V30.18H26.3991ZM26.5911 30.18V31.056C26.5911 32.88 27.7551 34.512 29.5191 35.148L30.0231 34.356C28.4511 33.804 27.3951 32.46 27.3951 31.056V30.18H26.5911ZM23.9751 29.88V30.696H29.7711V29.88H23.9751Z" fill="#DBD5D2"/>
</svg>
