<svg width="47" height="42" viewBox="0 0 47 42" fill="none" xmlns="http://www.w3.org/2000/svg">
<path d="M14.5 6C14.5 4.34315 15.8431 3 17.5 3H29.5C31.1569 3 32.5 4.34315 32.5 6V12H14.5V6Z" stroke="#615F5C" stroke-width="1.5"/>
<rect x="26.5" y="6" width="3" height="3" rx="1" stroke="#615F5C" stroke-width="1.5"/>
<path d="M13.3113 17.3492C12.8949 19.2227 14.3206 21 16.2398 21H30.7602C32.6794 21 34.1051 19.2227 33.6887 17.3492L32.5 12H14.5L13.3113 17.3492Z" stroke="#615F5C" stroke-width="1.5"/>
<path d="M16.5 14.7002H24.5" stroke="#615F5C" stroke-width="1.5" stroke-linecap="round" stroke-linejoin="round"/>
<path d="M16.5 17.3999L28.5 17.3999" stroke="#615F5C" stroke-width="1.5" stroke-linecap="round" stroke-linejoin="round"/>
<path d="M15.276 30.636V32.4C15.276 34.236 13.968 36.3 12.42 37.056L12.996 37.848C14.688 36.984 16.068 34.656 16.068 32.4V30.636H15.276ZM15.456 30.636V32.4C15.456 34.548 16.764 36.732 18.48 37.584L19.044 36.792C17.472 36.048 16.248 34.116 16.248 32.4V30.636H15.456ZM12.804 30.192V31.032H18.648V30.192H12.804ZM19.932 29.088V39.936H20.94V29.088H19.932ZM20.7 33.468V34.308H22.716V33.468H20.7ZM26.3031 29.748V31.08C26.3031 32.76 25.2471 34.224 23.5911 34.812L24.1191 35.604C25.9431 34.896 27.1191 33.204 27.1191 31.08V29.748H26.3031ZM26.4711 29.748V31.116C26.4711 33.024 27.6711 34.68 29.4591 35.328L29.9511 34.548C28.3671 33.984 27.2871 32.592 27.2871 31.116V29.748H26.4711ZM31.0551 29.076V37.092H32.0511V29.076H31.0551ZM31.7391 32.412V33.24H33.6591V32.412H31.7391ZM25.3191 38.88V39.696H32.5311V38.88H25.3191ZM25.3191 36.336V39.276H26.3151V36.336H25.3191Z" fill="#615F5C"/>
</svg>
