<svg width="44" height="42" viewBox="0 0 44 42" fill="none" xmlns="http://www.w3.org/2000/svg">
<path d="M12 11.5C12 10.241 12.5928 9.05542 13.6 8.3L19.6 3.8C21.0222 2.73333 22.9778 2.73333 24.4 3.8L30.4 8.3C31.4072 9.05542 32 10.241 32 11.5V18C32 20.2091 30.2091 22 28 22H26.1579C25.6056 22 25.1579 21.5523 25.1579 21V18C25.1579 16.8954 24.2625 16 23.1579 16H20.8421C19.7375 16 18.8421 16.8954 18.8421 18V21C18.8421 21.5523 18.3944 22 17.8421 22H16C13.7909 22 12 20.2091 12 18L12 11.5Z" fill="#615F5C" stroke="#615F5C" stroke-width="1.5"/>
<path d="M12.932 29.076V39.936H13.94V29.076H12.932ZM13.664 33.48V34.308H15.668V33.48H13.664ZM10.16 30.252V30.408C10.16 33.276 8.66 35.592 5.66 37.116L6.212 37.884C9.716 36.12 11.132 33.336 11.132 30.252H10.16ZM6.164 30.252V31.068H10.676V30.252H6.164ZM20.8391 32.1V32.904H23.2511V32.1H20.8391ZM20.7551 34.824V35.628H23.2271V34.824H20.7551ZM24.8951 29.088V39.936H25.8551V29.088H24.8951ZM22.7231 29.364V39.384H23.6591V29.364H22.7231ZM20.2991 30.456V30.636C20.2991 33.192 19.1591 35.352 16.6271 36.888L17.2031 37.596C20.1191 35.856 21.2591 33.3 21.2591 30.456H20.2991ZM17.1071 30.456V31.272H20.6951V30.456H17.1071ZM27.6661 35.508V36.324H37.5061V35.508H27.6661ZM32.0581 35.892V39.936H33.0421V35.892H32.0581ZM28.9021 29.52V34.212H36.2461V29.52H35.2621V31.008H29.8981V29.52H28.9021ZM29.8981 31.812H35.2621V33.408H29.8981V31.812Z" fill="#615F5C"/>
</svg>
