<svg width="43" height="32" viewBox="0 0 43 32" fill="none" xmlns="http://www.w3.org/2000/svg">
<path fill-rule="evenodd" clip-rule="evenodd" d="M20.75 1.72603C17.8373 1.72603 15.476 4.08727 15.476 7C15.476 9.91273 17.8373 12.274 20.75 12.274C23.6627 12.274 26.024 9.91273 26.024 7C26.024 4.08727 23.6627 1.72603 20.75 1.72603ZM13.75 7C13.75 3.13401 16.884 0 20.75 0C24.616 0 27.75 3.13401 27.75 7C27.75 10.866 24.616 14 20.75 14C16.884 14 13.75 10.866 13.75 7Z" fill="#717171"/>
<path fill-rule="evenodd" clip-rule="evenodd" d="M24.9772 11.2272C25.2802 10.9243 25.7715 10.9243 26.0745 11.2272L29.5228 14.6755C29.8257 14.9785 29.8257 15.4698 29.5228 15.7728C29.2198 16.0757 28.7285 16.0757 28.4255 15.7728L24.9772 12.3245C24.6743 12.0215 24.6743 11.5302 24.9772 11.2272Z" fill="#717171"/>
<path d="M16.51 21.32H17.38C17.38 23.6 15.78 25.23 13.18 25.96L12.84 25.31C15.13 24.66 16.51 23.35 16.51 21.67V21.32ZM13.31 21.32H17.07V21.99H13.31V21.32ZM19.35 20.74H20.18V25.9H19.35V20.74ZM17.39 23.06H19.51V23.75H17.39V23.06ZM14.35 26.28H20.18V29.66H14.35V26.28ZM19.37 26.95H15.17V28.98H19.37V26.95ZM23.8392 21.28H24.4992V22.49C24.4992 23.85 23.7292 25.28 22.3992 25.89L21.9492 25.24C23.1292 24.71 23.8392 23.52 23.8392 22.49V21.28ZM23.9692 21.28H24.6292V22.49C24.6292 23.52 25.2992 24.55 26.4592 25.02L26.0192 25.66C24.7092 25.11 23.9692 23.84 23.9692 22.49V21.28ZM28.7692 20.75H29.5592V26.21H28.7692V20.75ZM27.3092 23.09H29.0192V23.78H27.3092V23.09ZM26.8292 20.9H27.6192V26.16H26.8292V20.9ZM23.4992 26.7H29.5592V29.78H28.7392V27.38H23.4992V26.7Z" fill="#615F5C"/>
</svg>
