<svg width="42" height="44" viewBox="0 0 42 44" fill="none" xmlns="http://www.w3.org/2000/svg">
<path d="M21 14C19.067 14 17.5 12.433 17.5 10.5C17.5 8.567 19.067 7 21 7C22.933 7 24.5 8.567 24.5 10.5C24.5 12.433 22.933 14 21 14Z" fill="#DBD5D2" stroke="#DBD5D2" stroke-width="1.5"/>
<path d="M15 18.8795C15 18.321 15.4636 17.8229 16.1581 17.6351C19.2891 16.7883 22.7109 16.7883 25.8419 17.6351C26.5364 17.8229 27 18.321 27 18.8795V19.7333C27 20.504 26.0985 21.0961 25.091 20.987L24.2729 20.8986C22.1019 20.6637 19.8981 20.6637 17.7271 20.8986L16.909 20.987C15.9015 21.0961 15 20.504 15 19.7333V18.8795Z" fill="#DBD5D2" stroke="#DBD5D2" stroke-width="1.5"/>
<path d="M16.64 28.37H18.95V29.06H16.64V28.37ZM18.6 26.74H19.43V31.4H18.6V26.74ZM13.61 31.87H19.43V34.03H14.45V35.4H13.64V33.41H18.61V32.53H13.61V31.87ZM13.64 35H19.77V35.66H13.64V35ZM14.25 27.02H14.93V27.87C14.93 29.54 13.93 30.89 12.42 31.43L11.99 30.77C13.35 30.31 14.25 29.18 14.25 27.87V27.02ZM14.39 27.02H15.06V27.87C15.06 29.05 15.97 30.14 17.28 30.57L16.85 31.22C15.39 30.7 14.39 29.4 14.39 27.87V27.02ZM26.0192 29.08H28.0592V29.77H26.0192V29.08ZM27.7992 26.74H28.6292V32.13H27.7992V26.74ZM25.6592 32.4C27.5192 32.4 28.6692 33.03 28.6692 34.09C28.6692 35.16 27.5192 35.77 25.6592 35.77C23.7892 35.77 22.6392 35.16 22.6392 34.09C22.6392 33.03 23.7892 32.4 25.6592 32.4ZM25.6592 33.05C24.2992 33.05 23.4692 33.43 23.4692 34.09C23.4692 34.74 24.2992 35.12 25.6592 35.12C27.0192 35.12 27.8492 34.74 27.8492 34.09C27.8492 33.43 27.0192 33.05 25.6592 33.05ZM23.4992 27.65H24.1792V28.38C24.1792 30.05 23.1592 31.48 21.6592 32.04L21.2292 31.38C22.5692 30.89 23.4992 29.68 23.4992 28.38V27.65ZM23.6592 27.65H24.3292V28.38C24.3292 29.55 25.2092 30.67 26.5192 31.13L26.0992 31.79C24.6292 31.26 23.6592 29.9 23.6592 28.38V27.65ZM21.4792 27.4H26.3092V28.08H21.4792V27.4Z" fill="#DBD5D2"/>
</svg>
