<svg width="42" height="32" viewBox="0 0 42 32" fill="none" xmlns="http://www.w3.org/2000/svg">
<path d="M21 8C19.067 8 17.5 6.433 17.5 4.5C17.5 2.567 19.067 1 21 1C22.933 1 24.5 2.567 24.5 4.5C24.5 6.433 22.933 8 21 8Z" stroke="#615F5C" stroke-width="1.5"/>
<path d="M15 12.8795C15 12.321 15.4636 11.8229 16.1581 11.6351C19.2891 10.7883 22.7109 10.7883 25.8419 11.6351C26.5364 11.8229 27 12.321 27 12.8795V13.7333C27 14.504 26.0985 15.0961 25.091 14.987L24.2729 14.8986C22.1019 14.6637 19.8981 14.6637 17.7271 14.8986L16.909 14.987C15.9015 15.0961 15 14.504 15 13.7333V12.8795Z" stroke="#615F5C" stroke-width="1.5"/>
<path d="M16.64 22.37V23.06H18.95V22.37H16.64ZM18.6 20.74V25.4H19.43V20.74H18.6ZM13.61 25.87V26.53H18.61V27.41H13.64V29.4H14.45V28.03H19.43V25.87H13.61ZM13.64 29V29.66H19.77V29H13.64ZM14.25 21.02V21.87C14.25 23.18 13.35 24.31 11.99 24.77L12.42 25.43C13.93 24.89 14.93 23.54 14.93 21.87V21.02H14.25ZM14.39 21.02V21.87C14.39 23.4 15.39 24.7 16.85 25.22L17.28 24.57C15.97 24.14 15.06 23.05 15.06 21.87V21.02H14.39ZM26.0192 23.08V23.77H28.0592V23.08H26.0192ZM27.7992 20.74V26.13H28.6292V20.74H27.7992ZM25.6592 26.4C23.7892 26.4 22.6392 27.03 22.6392 28.09C22.6392 29.16 23.7892 29.77 25.6592 29.77C27.5192 29.77 28.6692 29.16 28.6692 28.09C28.6692 27.03 27.5192 26.4 25.6592 26.4ZM25.6592 27.05C27.0192 27.05 27.8492 27.43 27.8492 28.09C27.8492 28.74 27.0192 29.12 25.6592 29.12C24.2992 29.12 23.4692 28.74 23.4692 28.09C23.4692 27.43 24.2992 27.05 25.6592 27.05ZM23.4992 21.65V22.38C23.4992 23.68 22.5692 24.89 21.2292 25.38L21.6592 26.04C23.1592 25.48 24.1792 24.05 24.1792 22.38V21.65H23.4992ZM23.6592 21.65V22.38C23.6592 23.9 24.6292 25.26 26.0992 25.79L26.5192 25.13C25.2092 24.67 24.3292 23.55 24.3292 22.38V21.65H23.6592ZM21.4792 21.4V22.08H26.3092V21.4H21.4792Z" fill="#615F5C"/>
</svg>
