<svg width="42" height="32" viewBox="0 0 42 32" fill="none" xmlns="http://www.w3.org/2000/svg">
<path d="M28.25 7V14C28.25 14.6904 27.6904 15.25 27 15.25H25.5263C24.836 15.25 24.2763 14.6904 24.2763 14V13.2C24.2763 11.6812 23.0451 10.45 21.5263 10.45H20.4737C18.9549 10.45 17.7237 11.6812 17.7237 13.2V14C17.7237 14.6904 17.164 15.25 16.4737 15.25H15C14.3096 15.25 13.75 14.6904 13.75 14V7C13.75 6.60655 13.9352 6.23607 14.25 6L20.25 1.5C20.6944 1.16667 21.3056 1.16667 21.75 1.5L27.75 6C28.0648 6.23607 28.25 6.60655 28.25 7Z" stroke="#717171" stroke-width="1.5"/>
<path d="M13.61 20.73H14.45V29.78H13.61V20.73ZM14.22 24.4H15.89V25.09H14.22V24.4ZM11.3 21.71H12.11C12.11 24.28 10.93 26.6 8.01 28.07L7.55 27.43C10.05 26.16 11.3 24.23 11.3 21.84V21.71ZM7.97 21.71H11.73V22.39H7.97V21.71ZM20.1992 23.25H22.2092V23.92H20.1992V23.25ZM20.1292 25.52H22.1892V26.19H20.1292V25.52ZM23.5792 20.74H24.3792V29.78H23.5792V20.74ZM21.7692 20.97H22.5492V29.32H21.7692V20.97ZM19.7492 21.88H20.5492C20.5492 24.25 19.5992 26.38 17.1692 27.83L16.6892 27.24C18.7992 25.96 19.7492 24.16 19.7492 22.03V21.88ZM17.0892 21.88H20.0792V22.56H17.0892V21.88ZM25.8884 26.09H34.0884V26.77H25.8884V26.09ZM29.5484 26.41H30.3684V29.78H29.5484V26.41ZM26.9184 21.1H27.7484V22.34H32.2184V21.1H33.0384V25.01H26.9184V21.1ZM27.7484 23.01V24.34H32.2184V23.01H27.7484Z" fill="#615F5C"/>
</svg>
